<svg width="25" height="25" viewBox="0 0 25 25" fill="none" xmlns="http://www.w3.org/2000/svg">
  <path d="M19.8604 3.64482H16.9943V2.2275C16.994 1.90206 16.8738 1.59005 16.6602 1.35992C16.4465 1.1298 16.1568 1.00036 15.8547 1H10.1455C9.84331 1.00036 9.55364 1.1298 9.34 1.35992C9.12635 1.59005 9.00618 1.90206 9.00585 2.2275V3.64482H6.1396C5.83746 3.64518 5.54779 3.77462 5.33415 4.00474C5.1205 4.23487 5.00033 4.54688 5 4.87233V5.7725C5.00033 6.09794 5.1205 6.40995 5.33415 6.64008C5.54779 6.8702 5.83746 6.99964 6.1396 7H19.8604C20.1625 6.99964 20.4522 6.8702 20.6659 6.64008C20.8795 6.40995 20.9997 6.09794 21 5.7725V4.87233C20.9997 4.54688 20.8795 4.23487 20.6659 4.00474C20.4522 3.77462 20.1625 3.64518 19.8604 3.64482ZM9.76558 2.2275C9.76567 2.11902 9.80573 2.015 9.87694 1.93829C9.94816 1.86157 10.0447 1.81843 10.1455 1.81834H15.8545C15.9553 1.81843 16.0518 1.86157 16.1231 1.93829C16.1943 2.015 16.2343 2.11902 16.2344 2.2275V3.64482H9.76558V2.2275Z" fill="#FF0000"/>
  <path d="M7.58167 21.1853C7.60274 21.6747 7.79489 22.1363 8.11816 22.4743C8.44144 22.8122 8.87099 23.0005 9.31753 23H16.6825C17.129 23.0005 17.5585 22.8123 17.8818 22.4744C18.2051 22.1364 18.3972 21.6749 18.4183 21.1855L19 8H7L7.58167 21.1853ZM15.433 10.7966C15.433 10.6955 15.4697 10.5985 15.5348 10.527C15.6 10.4555 15.6884 10.4153 15.7806 10.4153C15.8728 10.4153 15.9612 10.4555 16.0264 10.527C16.0916 10.5985 16.1282 10.6955 16.1282 10.7966V18.678C16.1282 18.7792 16.0916 18.8762 16.0264 18.9477C15.9612 19.0192 15.8728 19.0594 15.7806 19.0594C15.6884 19.0594 15.6 19.0192 15.5348 18.9477C15.4697 18.8762 15.433 18.7792 15.433 18.678V10.7966ZM12.6524 10.7966C12.6524 10.6955 12.689 10.5985 12.7542 10.527C12.8194 10.4555 12.9078 10.4153 13 10.4153C13.0922 10.4153 13.1806 10.4555 13.2458 10.527C13.311 10.5985 13.3476 10.6955 13.3476 10.7966V18.678C13.3476 18.7792 13.311 18.8762 13.2458 18.9477C13.1806 19.0192 13.0922 19.0594 13 19.0594C12.9078 19.0594 12.8194 19.0192 12.7542 18.9477C12.689 18.8762 12.6524 18.7792 12.6524 18.678V10.7966ZM9.87181 10.7966C9.87181 10.6955 9.90843 10.5985 9.97362 10.527C10.0388 10.4555 10.1272 10.4153 10.2194 10.4153C10.3116 10.4153 10.4 10.4555 10.4652 10.527C10.5303 10.5985 10.567 10.6955 10.567 10.7966V18.678C10.567 18.7792 10.5303 18.8762 10.4652 18.9477C10.4 19.0192 10.3116 19.0594 10.2194 19.0594C10.1272 19.0594 10.0388 19.0192 9.97362 18.9477C9.90843 18.8762 9.87181 18.7792 9.87181 18.678V10.7966Z" fill="#FF0000"/>
</svg>
